<svg width="134" height="118" viewBox="0 0 134 118" fill="none" xmlns="http://www.w3.org/2000/svg">
<path d="M121.099 1H13.0661C6.28304 1 0.988927 6.625 0.988927 13.5735V83.2243C0.988927 90.1728 6.44849 95.7978 13.0661 95.7978H52.4411V102.912C52.4411 103.904 52.1102 104.732 51.4485 105.393C50.7867 106.055 49.9595 106.386 48.9669 106.386C44.1691 106.386 40.3639 110.357 40.3639 115.32C40.3639 116.147 41.0257 116.643 41.6875 116.643H92.4779C93.3051 116.643 93.8014 115.982 93.8014 115.32C93.8014 110.357 89.9963 106.386 85.1985 106.386C83.2132 106.386 81.7242 104.732 81.7242 102.746V95.6324H121.099C127.882 95.6324 133.176 90.0074 133.176 83.0589V13.5735C133.176 6.625 127.717 1 121.099 1ZM0.823486 77.2684H133.176Z" fill="white"/>
<path d="M0.823486 77.2684H133.176M121.099 1H13.0661C6.28304 1 0.988927 6.625 0.988927 13.5735V83.2243C0.988927 90.1728 6.44849 95.7978 13.0661 95.7978H52.4411V102.912C52.4411 103.904 52.1102 104.732 51.4485 105.393C50.7867 106.055 49.9595 106.386 48.9669 106.386C44.1691 106.386 40.3639 110.357 40.3639 115.32C40.3639 116.147 41.0257 116.643 41.6875 116.643H92.4779C93.3051 116.643 93.8014 115.982 93.8014 115.32C93.8014 110.357 89.9963 106.386 85.1985 106.386C83.2132 106.386 81.7242 104.732 81.7242 102.746V95.6324H121.099C127.882 95.6324 133.176 90.0074 133.176 83.0589V13.5735C133.176 6.625 127.717 1 121.099 1Z" stroke="#403E3E" stroke-width="1.6327" stroke-miterlimit="10"/>
<path d="M52.4412 95.7977H81.7242" stroke="#403E3E" stroke-width="1.6327" stroke-miterlimit="10"/>
<path fill-rule="evenodd" clip-rule="evenodd" d="M20.5651 44.797C21.3641 43.3919 23.1549 42.9235 24.5599 43.7225C25.965 44.5215 26.4334 46.3122 25.6344 47.7173C24.8354 49.1223 23.0447 49.5907 21.6396 48.7917C20.2345 47.9928 19.7662 46.202 20.5651 44.797ZM32.1638 44.797C32.9628 43.3919 34.7535 42.9235 36.1586 43.7225C37.5637 44.5215 38.032 46.3122 37.2331 47.7173C36.4341 49.1223 34.6433 49.5907 33.2383 48.7917C31.8332 47.9928 31.3649 46.202 32.1638 44.797ZM49.7133 53.6406C49.1348 54.2191 48.3909 54.5222 47.5093 54.5222C47.0685 54.5222 46.6828 54.4396 46.2971 54.3018C45.9114 54.1365 45.6084 53.9436 45.3328 53.6681C45.0573 53.3926 44.8645 53.062 44.6992 52.7039C44.5339 52.3182 44.4788 51.9049 44.4788 51.4641C44.4788 51.0233 44.5614 50.6101 44.6992 50.2519C44.8645 49.8662 45.0573 49.5632 45.3328 49.2877C45.6084 49.0121 45.939 48.8193 46.2971 48.654C46.6828 48.4887 47.0961 48.4336 47.5369 48.4336C47.9777 48.4336 48.3634 48.5162 48.7491 48.654C49.1072 48.8193 49.4378 49.0121 49.7133 49.2877C49.9888 49.5632 50.2092 49.8662 50.347 50.2519C50.5123 50.6101 50.5674 51.0233 50.5674 51.4366C50.5674 52.3182 50.2919 53.062 49.7133 53.6406ZM50.3745 40.1961V46.4224C49.8786 45.9265 49.3552 45.5684 48.8042 45.348C48.2532 45.1276 47.592 44.9898 46.8481 44.9898C45.9941 44.9898 45.2226 45.1551 44.4788 45.4857C43.7625 45.8163 43.1288 46.2571 42.6054 46.8357C42.0819 47.4142 41.6687 48.0754 41.3656 48.8744C41.0626 49.6734 40.8973 50.5274 40.8973 51.4366C40.8973 52.3733 41.035 53.2549 41.3381 54.0538C41.6411 54.8528 42.0544 55.514 42.5778 56.0926C43.1013 56.6711 43.7625 57.1119 44.4788 57.4425C45.2226 57.7731 46.0216 57.9384 46.9032 57.9384C47.7297 57.9384 48.446 57.8007 48.997 57.5527C49.5756 57.2772 50.099 56.864 50.5674 56.2579V57.4701H53.9836V40.1961H50.3745ZM28.8853 43.5847C28.968 43.4194 29.0506 43.2266 29.1608 43.0613C30.9241 40.0032 34.8362 38.9287 37.8667 40.7195C40.9248 42.4827 41.9717 46.4224 40.2085 49.4805L35.6076 57.4976H31.4475L34.2301 52.6488C33.2934 52.5937 32.3567 52.3182 31.5026 51.8223C30.3179 51.1335 29.4363 50.1142 28.8853 48.957C28.8027 49.1223 28.72 49.3152 28.6098 49.4805L24.0089 57.4976H19.8488L22.6314 52.6488C21.6947 52.5937 20.758 52.3182 19.9039 51.8223C16.8459 50.0315 15.7989 46.1194 17.5622 43.0337C19.3254 39.9757 23.2375 38.9012 26.2681 40.692C27.4803 41.3807 28.3619 42.4001 28.8853 43.5847ZM58.3366 50.1968C58.4743 49.5356 58.7774 49.0121 59.2457 48.654C59.7141 48.2958 60.2927 48.103 61.009 48.103C61.6977 48.103 62.3038 48.2958 62.7997 48.6815C63.2956 49.0672 63.5987 49.5632 63.7089 50.1968H58.3366ZM66.8221 49.0121C66.4915 48.2132 66.0507 47.5244 65.4997 46.9183C64.9211 46.3398 64.2599 45.8714 63.4885 45.5408C62.7171 45.2102 61.8906 45.0449 60.9814 45.0449C60.1273 45.0449 59.3008 45.2102 58.557 45.5408C57.8131 45.8714 57.1519 46.3398 56.5734 46.9183C56.0224 47.4969 55.5816 48.1856 55.2509 48.957C54.9203 49.756 54.755 50.5825 54.755 51.4917C54.755 52.4008 54.9203 53.2273 55.2509 53.9987C55.5816 54.7702 56.0224 55.4589 56.6009 56.0375C57.1795 56.616 57.8407 57.0568 58.6121 57.3874C59.3835 57.718 60.21 57.8833 61.0641 57.8833C62.3314 57.8833 63.4885 57.5252 64.5078 56.7813C65.4721 56.065 66.2435 55.1008 66.7945 53.8885H63.0752C62.6895 54.2467 62.3314 54.4947 62.0283 54.6324C61.6977 54.7702 61.3396 54.8253 60.8712 54.8253C60.1549 54.8253 59.5488 54.6324 59.0804 54.2192C58.6121 53.8059 58.309 53.2549 58.2539 52.5937H67.2353C67.4006 51.3815 67.2904 50.1693 66.8221 49.0121ZM77.181 48.8468C77.0157 46.5051 75.1698 45.0725 72.5801 45.0725C70.1557 45.0725 67.9241 46.6153 67.9241 48.9846C67.9241 50.3897 68.723 51.5743 71.7536 52.511C73.5443 53.062 73.9576 53.4202 73.9576 54.0814C73.9576 54.6324 73.3239 55.0181 72.7178 55.0181C72.0015 55.0181 71.4781 54.66 71.3679 53.9161H67.8139C68.0618 56.3681 69.9904 57.8833 72.6903 57.8833C75.4178 57.8833 77.5667 56.313 77.5667 53.8059C77.5667 52.0702 76.63 50.9131 73.7923 50.1693C72.1393 49.7285 71.5332 49.4254 71.5332 48.7642C71.5332 48.3234 71.974 47.9652 72.5801 47.9652C73.1586 47.9652 73.6545 48.1856 73.6821 48.8744H77.181V48.8468ZM80.3217 44.1908C81.5064 44.1908 82.4706 43.2266 82.4706 42.0419C82.4706 40.8573 81.5064 39.893 80.3217 39.893C79.137 39.893 78.1728 40.8573 78.1728 42.0419C78.1728 43.2266 79.137 44.1908 80.3217 44.1908ZM82.1125 57.4701H78.5309V45.4582H82.1125V57.4701ZM88.9725 47.7448C90.0745 47.7448 90.9561 48.6264 90.9561 49.7285C90.9561 50.8305 90.0745 51.7121 88.9725 51.7121C87.8705 51.7121 86.9889 50.8305 86.9889 49.7285C86.9889 48.654 87.8705 47.7448 88.9725 47.7448ZM91.452 59.9496C91.0388 60.5006 90.2674 60.6935 89.6062 60.7486C88.8347 60.7761 87.7878 60.6108 87.2644 59.9772C86.7685 59.3711 86.8787 58.517 87.5674 58.1037C87.7603 57.9935 87.9807 57.9109 88.2011 57.8833H89.9919C90.7633 57.8833 91.7551 58.1037 91.7551 59.068C91.7551 59.3711 91.6449 59.7017 91.452 59.9496ZM87.9807 55.1283C86.5205 54.9079 86.5481 54.3294 86.9062 54.0263C90.2123 55.2936 94.2622 53.6957 94.2897 49.8387C94.2897 48.4336 93.7938 47.5244 93.4081 47.1112C93.7111 46.5326 94.0693 46.2296 94.8132 46.0643L93.2979 43.447C91.9204 43.5572 91.0388 44.4113 90.6255 45.2653C89.8266 44.9347 88.1735 44.9072 86.8511 45.3755C86.2175 45.5959 85.6389 45.9265 85.143 46.3673C84.6471 46.7806 84.2889 47.304 84.0134 47.8826C83.7379 48.4887 83.6002 49.1499 83.6002 49.8111C83.6002 50.7203 83.9032 51.8223 84.4267 52.5661C82.9941 53.9987 83.0767 56.1201 84.5645 57.4425C84.3991 57.5527 84.2614 57.6905 84.1236 57.8558C82.7737 59.316 83.4073 61.3822 84.9501 62.4567C86.9062 63.8617 90.3776 63.9444 92.5265 62.9801C96.2733 61.4373 96.4111 55.8446 92.0581 55.1008C90.8184 54.9355 89.4408 55.3487 87.9807 55.1283ZM95.6672 57.4701H99.2487V50.7754C99.2487 49.205 99.9375 48.406 101.287 48.406C101.949 48.406 102.417 48.5989 102.72 49.0121C103.023 49.4254 103.161 50.0591 103.161 50.9131V57.4701H106.742V49.9489C106.742 49.4805 106.715 49.0397 106.687 48.6815C106.66 48.3234 106.577 47.9928 106.494 47.7173C106.412 47.4418 106.302 47.1663 106.136 46.9459C105.971 46.7255 105.778 46.4775 105.558 46.2571C105.172 45.8714 104.704 45.5684 104.153 45.348C103.602 45.1276 102.996 45.0174 102.362 45.0174C101.591 45.0174 100.957 45.1551 100.461 45.4031C99.9651 45.6786 99.4967 46.0918 99.0835 46.6979V45.4306H95.6948V57.4701H95.6672ZM116.908 48.8468C116.716 46.4775 114.897 45.0725 112.308 45.0725C109.883 45.0725 107.652 46.6153 107.652 48.9846C107.652 50.3897 108.451 51.5743 111.481 52.511C113.272 53.062 113.685 53.4202 113.685 54.0814C113.685 54.6324 113.051 55.0181 112.445 55.0181C111.729 55.0181 111.206 54.66 111.095 53.9161H107.541C107.789 56.3681 109.718 57.8833 112.418 57.8833C115.145 57.8833 117.294 56.313 117.294 53.8059C117.294 52.0702 116.357 50.9131 113.52 50.1693C111.867 49.7285 111.261 49.4254 111.261 48.7642C111.261 48.3234 111.701 47.9652 112.308 47.9652C112.886 47.9652 113.382 48.1856 113.41 48.8744H116.908V48.8468Z" fill="#555555"/>
</svg>
