<svg width="82" height="83" viewBox="0 0 82 83" fill="none" xmlns="http://www.w3.org/2000/svg">
<path d="M55.3744 21.0349C60.0333 24.8951 62.9618 30.8852 62.9618 37.4076C62.9618 53.6472 50.9818 51.1181 50.9818 63.8968V71.0848C50.9818 72.9484 49.3844 74.5457 47.5209 74.5457H40.7322H33.9435C32.0799 74.5457 30.4826 72.9484 30.4826 71.0848V63.8968C30.4826 51.1181 18.5026 53.6472 18.5026 37.4076C18.5026 30.8852 21.431 25.0283 26.0899 21.0349" stroke="#263238" stroke-width="2" stroke-miterlimit="10"/>
<path d="M33.8103 74.4126V75.0782C33.8103 78.9384 36.8719 82 40.7321 82C44.5923 82 47.6539 78.9384 47.6539 75.0782V74.5457" stroke="#263238" stroke-width="2" stroke-miterlimit="10"/>
<path d="M30.4825 70.4192C30.4825 70.4192 20.7654 66.6921 15.574 76.4092C11.98 75.3443 6.65558 79.0714 6.65558 81.9999" stroke="#263238" stroke-width="2" stroke-miterlimit="10"/>
<path d="M40.7321 82.0002H0" stroke="#263238" stroke-width="2" stroke-miterlimit="10"/>
<path d="M51.1149 70.4192C51.1149 70.4192 60.832 66.6921 66.0233 76.4092C69.6174 75.3443 74.9418 78.9383 74.9418 81.9999" stroke="#263238" stroke-width="2" stroke-miterlimit="10"/>
<path d="M40.8652 82.0002H81.5973" stroke="#263238" stroke-width="2" stroke-miterlimit="10"/>
<path d="M51.1149 21.7005C51.1149 23.2978 50.9818 24.7621 50.8487 26.0932C50.4494 29.9534 49.3845 32.8819 48.3196 35.0116C46.8553 37.9401 45.3911 39.4043 45.3911 39.4043H36.872C36.872 39.4043 35.4078 37.9401 33.9435 34.8785C32.8786 32.7487 31.8138 29.6872 31.4144 25.9601C31.2813 24.6289 31.1482 23.1647 31.1482 21.5674C31.1482 8.25624 41.1316 2 41.1316 2C41.1316 2 51.1149 8.38935 51.1149 21.7005Z" fill="white" stroke="#004FFF" stroke-width="2" stroke-miterlimit="10"/>
<path d="M47.5208 48.0566L43.7936 46.9917L41.1314 52.8486L38.4692 46.9917L34.7421 48.0566C34.7421 41.8004 37.2712 39.5375 37.2712 39.5375H45.1248C44.9917 39.4043 47.5208 41.8004 47.5208 48.0566Z" fill="white" stroke="#004FFF" stroke-width="2" stroke-miterlimit="10"/>
<path d="M33.9435 35.0117L25.8236 42.7322C24.6256 30.7522 31.4143 26.0933 31.4143 26.0933C31.9468 29.8204 33.0117 32.7488 33.9435 35.0117Z" fill="white" stroke="#004FFF" stroke-width="2" stroke-miterlimit="10"/>
<path d="M56.4393 42.7322L48.3195 35.0117C49.3843 32.8819 50.3161 29.8204 50.8486 26.0933C50.8486 26.0933 57.6373 30.7522 56.4393 42.7322Z" fill="white" stroke="#004FFF" stroke-width="2" stroke-miterlimit="10"/>
<path d="M33.6771 10.9185C33.6771 10.9185 36.0731 13.7138 40.9983 13.7138C45.7903 13.7138 48.7187 10.9185 48.7187 10.9185" stroke="#004FFF" stroke-width="2" stroke-miterlimit="10"/>
<path d="M11.7138 37.4075H6.25623" stroke="#263238" stroke-width="2" stroke-miterlimit="10"/>
<path d="M15.7071 22.7652L11.0482 20.2361" stroke="#263238" stroke-width="2" stroke-miterlimit="10"/>
<path d="M26.3561 12.1164L23.5607 7.45752" stroke="#263238" stroke-width="2" stroke-miterlimit="10"/>
<path d="M69.8835 37.4075H75.3411" stroke="#263238" stroke-width="2" stroke-miterlimit="10"/>
<path d="M65.8903 22.7652L70.5492 20.2361" stroke="#263238" stroke-width="2" stroke-miterlimit="10"/>
<path d="M55.2413 12.1164L58.0367 7.45752" stroke="#263238" stroke-width="2" stroke-miterlimit="10"/>
<path d="M30.4825 61.2346H51.2479" stroke="#263238" stroke-width="2" stroke-miterlimit="10"/>
<path d="M11.3144 51.2512L8.91843 55.6439L4.39264 58.3061L8.91843 60.7021L11.3144 65.2279L13.8436 60.7021L18.5025 58.3061L13.8436 55.6439L11.3144 51.2512Z" fill="white" stroke="#004FFF" stroke-width="2" stroke-miterlimit="10"/>
<path d="M70.1497 51.2512L67.8868 55.6439L63.2279 58.3061L67.8868 60.7021L70.1497 65.2279L72.8119 60.7021L77.4708 58.3061L72.8119 55.6439L70.1497 51.2512Z" fill="white" stroke="#004FFF" stroke-width="2" stroke-miterlimit="10"/>
<path d="M30.7488 67.7566H42.0633" stroke="#263238" stroke-width="2" stroke-miterlimit="10"/>
</svg>
