<svg width="134" height="118" viewBox="0 0 134 118" fill="none" xmlns="http://www.w3.org/2000/svg">
<path d="M121.099 1H13.0662C6.28311 1 0.988988 6.625 0.988988 13.5735V83.2243C0.988988 90.1728 6.44855 95.7978 13.0662 95.7978H52.4412V102.912C52.4412 103.904 52.1103 104.732 51.4485 105.393C50.7868 106.055 49.9596 106.386 48.9669 106.386C44.1691 106.386 40.364 110.357 40.364 115.32C40.364 116.147 41.0258 116.643 41.6875 116.643H92.478C93.3052 116.643 93.8015 115.982 93.8015 115.32C93.8015 110.357 89.9963 106.386 85.1985 106.386C83.2132 106.386 81.7243 104.732 81.7243 102.746V95.6324H121.099C127.882 95.6324 133.176 90.0074 133.176 83.0588V13.5735C133.176 6.625 127.717 1 121.099 1ZM0.823547 77.2684H133.176H0.823547Z" fill="white"/>
<path d="M0.823547 77.2684H133.176M121.099 1H13.0662C6.28311 1 0.988988 6.625 0.988988 13.5735V83.2243C0.988988 90.1728 6.44855 95.7978 13.0662 95.7978H52.4412V102.912C52.4412 103.904 52.1103 104.732 51.4485 105.393C50.7868 106.055 49.9596 106.386 48.9669 106.386C44.1691 106.386 40.364 110.357 40.364 115.32C40.364 116.147 41.0258 116.643 41.6875 116.643H92.478C93.3052 116.643 93.8015 115.982 93.8015 115.32C93.8015 110.357 89.9963 106.386 85.1985 106.386C83.2132 106.386 81.7243 104.732 81.7243 102.746V95.6324H121.099C127.882 95.6324 133.176 90.0074 133.176 83.0588V13.5735C133.176 6.625 127.717 1 121.099 1Z" stroke="#403E3E" stroke-width="1.6327" stroke-miterlimit="10"/>
<path d="M52.4412 95.7977H81.7242" stroke="#403E3E" stroke-width="1.6327" stroke-miterlimit="10"/>
<path d="M108.928 47.6822H105.425C103.162 47.6822 101.921 49.3906 101.921 52.3492V62.9391H95.1383V47.6822H92.3141C90.0513 47.6822 88.8105 49.3906 88.8105 52.3492V62.9391H82.0279V41.9856H88.8105V45.1761C89.939 42.67 91.4101 41.9856 93.6729 41.9856H101.921V45.1761C103.049 42.67 104.521 41.9856 106.783 41.9856H109.046L108.928 47.6822ZM80.4445 54.0576H66.4357C66.7726 56.4505 68.2437 57.7007 70.6187 57.7007C72.4266 57.7007 73.6675 56.9031 74.1223 55.6529L80.1132 57.3613C78.6422 61.0044 75.0263 63.171 70.6187 63.171C63.2746 63.171 59.8833 57.3613 59.8833 52.3548C59.8833 47.4559 62.8198 41.6518 70.1695 41.6518C77.9684 41.6518 80.568 47.5747 80.568 52.0154C80.5624 53.0337 80.5624 53.5994 80.4445 54.0576ZM74.0044 50.0751C73.8921 48.2535 72.5333 46.6582 70.2762 46.6582C68.1314 46.6582 66.8849 47.569 66.4357 50.0751H74.0044ZM48.126 62.9391H54.0047L61.461 42.1044H54.6784L51.0625 54.2895L47.4466 41.9856H40.664L48.126 62.9391ZM20.5464 62.9391H27.2167V47.6822H33.6568V62.9391H40.3271V41.9856H27.2167V40.7354C27.2167 39.3664 28.233 38.4556 29.704 38.4556H33.6568V32.7646H28.6821C23.8254 32.7646 20.5464 35.8364 20.5464 40.2771V41.9856H16.7059V47.6765H20.5464V62.9391Z" fill="#383D42"/>
<path d="M113.111 63.5105C115.374 63.5105 117.294 61.5758 117.294 59.296C117.294 57.0162 115.374 55.0815 113.111 55.0815C110.848 55.0815 108.928 57.0162 108.928 59.296C108.928 61.5758 110.848 63.5105 113.111 63.5105Z" fill="#3DB87C"/>
</svg>
