<svg width="112" height="140" viewBox="0 0 112 140" fill="none" xmlns="http://www.w3.org/2000/svg">
<path d="M13.5185 119.85C15.1481 120.739 16.4074 121.998 17.3333 123.628C18.2222 125.257 18.6666 127.109 18.6666 129.257C18.6666 131.368 18.2222 133.22 17.3333 134.85C16.4444 136.48 15.1481 137.739 13.5185 138.628C11.8518 139.554 9.9259 139.998 7.77775 139.998H0V118.517H7.77775C9.96293 118.517 11.8518 118.961 13.5185 119.85ZM11.8889 133.85C12.9629 132.776 13.4814 131.257 13.4814 129.257C13.4814 127.294 12.9629 125.739 11.8889 124.628C10.8148 123.517 9.33331 122.961 7.44442 122.961H5.03702V135.442H7.44442C9.37034 135.48 10.8518 134.924 11.8889 133.85Z" fill="white"/>
<path d="M37.3332 139.665L35.4073 137.813C33.4814 139.257 31.2221 139.998 28.5554 139.998C26.9629 139.998 25.5555 139.739 24.4073 139.22C23.2221 138.702 22.2962 137.961 21.6666 136.998C21.0369 136.035 20.7036 134.924 20.7036 133.628C20.7036 132.331 21.0369 131.146 21.7406 130.109C22.4443 129.072 23.4814 128.183 24.8888 127.517C24.3703 126.887 23.9999 126.294 23.7777 125.702C23.5555 125.109 23.4443 124.48 23.4443 123.813C23.4443 122.813 23.7036 121.924 24.2221 121.109C24.7406 120.294 25.4814 119.665 26.4443 119.22C27.4073 118.776 28.5925 118.517 29.9258 118.517C31.2962 118.517 32.4443 118.776 33.3702 119.257C34.3332 119.739 35.0369 120.405 35.4813 121.22C35.9628 122.035 36.185 122.961 36.148 123.924H31.4443C31.4814 123.405 31.3332 122.998 31.0369 122.702C30.7406 122.405 30.3702 122.257 29.8888 122.257C29.4073 122.257 29.0369 122.405 28.7036 122.665C28.3703 122.924 28.2221 123.294 28.2221 123.739C28.2221 124.146 28.3703 124.591 28.6295 125.035C28.8888 125.48 29.2962 125.998 29.8888 126.591L34.9258 131.517C34.9628 131.405 35.0369 131.294 35.0739 131.146C35.148 130.998 35.2221 130.85 35.2962 130.665L36.4073 128.813H41.4813L40.0739 131.368C39.5554 132.517 38.9258 133.628 38.2591 134.665L43.2591 139.554H37.3332V139.665ZM32.3332 134.776L27.7406 130.331C26.3332 131.072 25.6295 132.035 25.6295 133.294C25.6295 134.035 25.9258 134.665 26.5184 135.183C27.111 135.702 27.8888 135.924 28.8517 135.924C30.111 135.924 31.2962 135.554 32.3332 134.776Z" fill="white"/>
<path d="M58.5557 119.851C60.1853 120.74 61.4446 121.999 62.3705 123.629C63.2594 125.258 63.7038 127.11 63.7038 129.258C63.7038 131.369 63.2594 133.221 62.3705 134.851C61.4816 136.48 60.1853 137.74 58.5557 138.629C56.9261 139.517 55.0002 139.962 52.852 139.962H45.0743V118.48H52.852C55.0002 118.518 56.9261 118.962 58.5557 119.851ZM56.9631 133.851C58.0372 132.777 58.5557 131.258 58.5557 129.258C58.5557 127.295 58.0372 125.74 56.9631 124.629C55.889 123.517 54.4076 122.962 52.5187 122.962H50.1113V135.443H52.5187C54.4076 135.48 55.889 134.925 56.9631 133.851Z" fill="white"/>
<path d="M72.4809 139.258C71.2957 138.776 70.3327 138.036 69.592 137.073C68.8883 136.11 68.4809 134.962 68.4438 133.591H73.8142C73.8883 134.369 74.1475 134.961 74.629 135.332C75.0735 135.739 75.666 135.924 76.4068 135.924C77.1475 135.924 77.7401 135.739 78.1846 135.406C78.629 135.073 78.8512 134.591 78.8512 133.962C78.8512 133.443 78.666 133.036 78.3327 132.702C77.9994 132.369 77.5549 132.11 77.0735 131.887C76.5549 131.665 75.8512 131.443 74.9253 131.147C73.592 130.739 72.4809 130.332 71.629 129.887C70.7772 129.48 70.0364 128.85 69.4438 128.073C68.8513 127.258 68.5179 126.221 68.5179 124.924C68.5179 122.999 69.2216 121.48 70.629 120.406C72.0364 119.295 73.8512 118.776 76.1105 118.776C78.4068 118.776 80.2216 119.332 81.629 120.406C83.0364 121.517 83.7771 123.036 83.8882 124.962H78.4068C78.3697 124.295 78.1105 123.776 77.666 123.369C77.2216 122.999 76.629 122.776 75.9253 122.776C75.3327 122.776 74.8142 122.924 74.4438 123.258C74.0735 123.591 73.8883 124.036 73.8883 124.665C73.8883 125.332 74.2216 125.85 74.8512 126.221C75.4809 126.591 76.4809 126.999 77.8142 127.443C79.1475 127.887 80.2586 128.332 81.0734 128.739C81.9253 129.147 82.629 129.739 83.2586 130.554C83.8512 131.332 84.1845 132.369 84.1845 133.591C84.1845 134.776 83.8882 135.85 83.2957 136.813C82.7031 137.776 81.8142 138.554 80.666 139.11C79.5179 139.665 78.1846 139.961 76.629 139.961C75.0735 139.999 73.7031 139.739 72.4809 139.258Z" fill="white"/>
<path d="M90.3703 138.963C89.074 138.259 88.074 137.296 87.3333 136C86.5925 134.704 86.2222 133.222 86.2222 131.519C86.2222 129.815 86.5925 128.333 87.3333 127.037C88.074 125.741 89.111 124.741 90.4073 124.074C91.7036 123.37 93.1481 123.037 94.7777 123.037C96.4073 123.037 97.8518 123.37 99.1481 124.074C100.444 124.778 101.481 125.741 102.222 127.037C102.963 128.333 103.333 129.815 103.333 131.519C103.333 133.222 102.963 134.704 102.185 136C101.444 137.296 100.407 138.296 99.074 138.963C97.7777 139.667 96.2962 140 94.7036 140C93.111 140 91.6666 139.667 90.3703 138.963ZM97.2221 134.556C97.8888 133.852 98.2592 132.815 98.2592 131.519C98.2592 130.185 97.9258 129.185 97.2592 128.482C96.5925 127.778 95.7777 127.407 94.8147 127.407C93.8147 127.407 92.9999 127.741 92.3703 128.444C91.7036 129.148 91.4073 130.148 91.4073 131.519C91.4073 132.852 91.7407 133.852 92.3703 134.556C92.9999 135.259 93.8147 135.63 94.7777 135.63C95.7036 135.63 96.5184 135.259 97.2221 134.556Z" fill="white"/>
<path d="M106.074 118.517V139.998H111.111V118.517H106.074Z" fill="white"/>
<path d="M88.8516 97.0016L101.111 101.113L97.0367 88.8164L88.8516 97.0016Z" fill="white"/>
<path d="M95.3701 87.1861L85.1109 76.9269L96.9997 65.038L88.8146 56.8529L76.9257 68.7417L42.2962 34.1122L57.7776 18.7419C67.3331 9.18635 82.8516 9.18635 92.4071 18.7419C101.963 28.2974 101.963 43.8159 92.4071 53.3714L100.592 61.5566C114.666 47.4825 114.666 24.6308 100.592 10.5567C86.6664 -3.36917 64.1109 -3.51731 50.0369 10.1123C49.185 8.29747 47.9999 6.6308 46.5554 5.14933C39.7036 -1.66547 28.5925 -1.66547 21.7777 5.14933C14.9259 11.9641 14.9259 23.1122 21.7777 29.927L25.9999 34.1492L14.074 46.0381L22.2592 54.2233L34.148 42.3344L68.7776 76.9639L53.3332 92.3713C48.7036 97.0009 42.5554 99.5565 36.0369 99.5565C29.4814 99.5565 23.3333 97.0009 18.7407 92.3713C14.1111 87.7417 11.5555 81.5935 11.5555 75.075C11.5555 68.5195 14.1111 62.4084 18.7407 57.7788L10.5555 49.5936C-3.51851 63.6677 -3.51851 86.5195 10.5555 100.593C17.3703 107.371 26.4073 111.112 36.0369 111.112C45.6665 111.112 54.7035 107.371 61.5183 100.556L76.9257 85.1491L87.1849 95.4083L95.3701 87.1861ZM29.9258 13.3345C31.074 12.1863 32.6295 11.5938 34.148 11.5938C35.6666 11.5938 37.1851 12.1863 38.3703 13.3345C39.4814 14.4456 40.111 15.9641 40.111 17.5567C40.111 19.1493 39.4814 20.6308 38.3703 21.7789L34.148 25.9641L29.9258 21.7419C27.6295 19.4456 27.6295 15.6678 29.9258 13.3345Z" fill="white"/>
<path d="M32.333 58.2969V78.7413H52.8144V70.482H40.6293V58.2969H32.333Z" fill="white"/>
<path d="M78.7773 52.7793V32.335H58.2959V40.6312H70.481V52.7793H78.7773Z" fill="white"/>
</svg>
