<svg width="134" height="118" viewBox="0 0 134 118" fill="none" xmlns="http://www.w3.org/2000/svg">
<path d="M121.099 1H13.0661C6.28304 1 0.988927 6.625 0.988927 13.5735V83.2243C0.988927 90.1728 6.44849 95.7978 13.0661 95.7978H52.4411V102.912C52.4411 103.904 52.1102 104.732 51.4485 105.393C50.7867 106.055 49.9595 106.386 48.9669 106.386C44.1691 106.386 40.3639 110.357 40.3639 115.32C40.3639 116.147 41.0257 116.643 41.6875 116.643H92.4779C93.3051 116.643 93.8014 115.982 93.8014 115.32C93.8014 110.357 89.9963 106.386 85.1985 106.386C83.2132 106.386 81.7242 104.732 81.7242 102.746V95.6324H121.099C127.882 95.6324 133.176 90.0074 133.176 83.0588V13.5735C133.176 6.625 127.717 1 121.099 1ZM0.823486 77.2684H133.176H0.823486Z" fill="white"/>
<path d="M0.823486 77.2684H133.176M121.099 1H13.0661C6.28304 1 0.988927 6.625 0.988927 13.5735V83.2243C0.988927 90.1728 6.44849 95.7978 13.0661 95.7978H52.4411V102.912C52.4411 103.904 52.1102 104.732 51.4485 105.393C50.7867 106.055 49.9595 106.386 48.9669 106.386C44.1691 106.386 40.3639 110.357 40.3639 115.32C40.3639 116.147 41.0257 116.643 41.6875 116.643H92.4779C93.3051 116.643 93.8014 115.982 93.8014 115.32C93.8014 110.357 89.9963 106.386 85.1985 106.386C83.2132 106.386 81.7242 104.732 81.7242 102.746V95.6324H121.099C127.882 95.6324 133.176 90.0074 133.176 83.0588V13.5735C133.176 6.625 127.717 1 121.099 1Z" stroke="#403E3E" stroke-width="1.6327" stroke-miterlimit="10"/>
<path d="M52.4412 95.7977H81.7242" stroke="#403E3E" stroke-width="1.6327" stroke-miterlimit="10"/>
<g clip-path="url(#clip0_509_4)">
<path d="M31.482 33.647L34.0246 37.2119L46.8425 33.647M18.166 61.3011L25.1123 54.5383L20.9446 50.056M30.4335 33.647L26.7375 36.976L32.9761 37.2119M16.0428 33.647L17.3797 36.3731L24.7192 36.8187M19.9747 47.7755L25.3745 37.6837L9.64697 36.8187M20.6038 48.4308L25.7152 53.9354L31.3509 48.4046L33.1072 38.1031L26.2395 37.7623" fill="#29B2FE"/>
<path d="M42.3078 46.6222H40.8923L39.6865 54.3548C39.6603 54.5645 39.4506 54.7218 39.2671 54.7218H36.4624C36.2527 54.7218 36.1216 54.5645 36.1479 54.3548L37.8779 43.4767C38.3235 40.7243 39.7128 40.1215 41.6001 40.1215C42.2029 40.1215 42.8058 40.1739 43.3039 40.2787C43.5136 40.3049 43.6708 40.436 43.6446 40.6457L43.3563 42.4019C43.3301 42.6116 43.1466 42.7427 42.9107 42.7427H42.1243C41.6525 42.7427 41.4952 42.9262 41.4166 43.4767L41.3379 43.9747H42.7534C42.9631 43.9747 43.0942 44.132 43.068 44.3417L42.7796 46.229C42.701 46.4387 42.5175 46.6222 42.3078 46.6222ZM49.3327 46.727H49.0706C48.2842 46.727 47.4979 46.8319 46.8688 47.1464L45.7416 54.3024C45.7154 54.5121 45.5319 54.7218 45.296 54.7218H42.5175C42.3078 54.7218 42.1505 54.5121 42.1767 54.3286L43.7495 44.3679C43.7757 44.1582 43.9068 44.0009 44.1689 44.0009H46.8688C47.1309 44.0009 47.2357 44.1058 47.1833 44.3679L47.1047 44.8135C48.0745 43.9485 48.7561 43.8436 49.7259 43.8436C50.0405 43.8436 50.0929 43.9223 50.0405 44.2106L49.6735 46.4649C49.6473 46.6746 49.5687 46.727 49.3327 46.727ZM58.612 50.3705H52.8714V50.3968C52.7142 51.3666 53.0287 51.9957 54.3655 51.9957C55.3354 51.9957 57.1703 51.8909 57.9042 51.8384C58.1926 51.8122 58.2974 51.8647 58.2712 52.153L58.0091 53.8044C57.9567 54.0927 57.878 54.2238 57.5635 54.3286C56.3315 54.7218 55.0209 54.9053 53.4743 54.9053C50.9841 54.9053 48.8871 53.5947 49.4376 50.056L49.6211 48.824C50.1453 45.5737 52.2948 43.7912 55.3354 43.7912C58.5595 43.7912 59.7391 45.8358 59.2673 48.824L59.0838 49.9249C59.0052 50.1871 58.8217 50.3705 58.612 50.3705ZM55.9121 48.3522C56.0956 47.2513 55.7548 46.5697 54.8374 46.5697C53.9461 46.5697 53.3695 47.225 53.186 48.3522V48.4046H55.9121V48.3522ZM68.8348 50.3705H63.0943V50.3968C62.937 51.3666 63.2516 51.9957 64.5884 51.9957C65.5583 51.9957 67.3932 51.8909 68.1271 51.8384C68.4154 51.8122 68.5203 51.8647 68.4941 52.153L68.232 53.8044C68.1795 54.0927 68.1009 54.2238 67.7863 54.3286C66.5544 54.7218 65.2437 54.9053 63.6972 54.9053C61.207 54.9053 59.11 53.5947 59.6605 50.056L59.844 48.824C60.3682 45.5737 62.5176 43.7912 65.5583 43.7912C68.7824 43.7912 69.962 45.8358 69.4902 48.824L69.3067 49.9249C69.228 50.1871 69.0445 50.3705 68.8348 50.3705ZM66.135 48.3522C66.3184 47.2513 65.9777 46.5697 65.0602 46.5697C64.169 46.5697 63.5923 47.225 63.4089 48.3522V48.4046H66.135V48.3522ZM72.5832 54.748H69.8047C69.595 54.748 69.4377 54.5383 69.4639 54.3548L71.6134 40.8554C71.6396 40.6457 71.8755 40.4884 72.0852 40.4884H74.8637C75.0734 40.4884 75.2045 40.6457 75.1783 40.8554L73.0288 54.3548C72.9764 54.5383 72.7667 54.7218 72.5832 54.748ZM82.3867 54.748H79.8179C79.6082 54.748 79.4771 54.5908 79.5033 54.3811L79.5558 53.9879C78.7694 54.5121 77.7733 54.9053 76.7772 54.9053C75.3093 54.9053 73.7366 54.0927 74.1298 51.6025L74.156 51.3928C74.4967 49.1648 76.3054 48.3784 79.3985 48.3784H80.1849L80.2635 47.8541C80.3946 46.9367 80.1324 46.7794 79.215 46.7794C78.1927 46.7794 76.5151 46.8843 75.9909 46.9105C75.6763 46.9367 75.5977 46.7532 75.6501 46.5435L75.9384 44.7611C75.9909 44.4727 76.1481 44.3941 76.384 44.3155C77.0131 44.132 78.6383 43.8698 79.8441 43.8698C82.5178 43.8698 84.3264 44.8397 83.8546 47.8541L82.8061 54.3811C82.7799 54.5645 82.5964 54.748 82.3867 54.748ZM80.0276 50.2919H79.1101C78.1927 50.2919 77.7733 50.5802 77.6422 51.3666L77.616 51.5501C77.5112 52.1792 77.9044 52.3627 78.4286 52.3627C78.8742 52.3627 79.3985 52.2316 79.7392 52.0744L80.0276 50.2919ZM93.0552 54.748H90.2767C90.067 54.748 89.9097 54.5383 89.9359 54.3548L90.932 48.0901C91.0893 47.1202 90.8271 46.8056 89.9883 46.8056C89.5689 46.8056 88.9923 46.9629 88.5466 47.1988L87.4195 54.3548C87.3933 54.5645 87.2098 54.748 86.9739 54.748H84.1954C83.9857 54.748 83.8284 54.5383 83.8546 54.3548L85.4274 44.3941C85.4536 44.1844 85.6633 44.0271 85.8468 44.0271H88.4156C88.6253 44.0271 88.7563 44.1844 88.7301 44.3941L88.6515 44.8135C89.7524 44.0795 90.8009 43.8698 91.8494 43.8698C94.759 43.8698 94.7852 45.8882 94.4445 48.0901L93.4484 54.3548C93.4484 54.5383 93.2649 54.748 93.0552 54.748ZM101.233 54.617C100.578 54.7742 99.7394 54.9053 98.6647 54.9053C95.8337 54.9053 94.5493 53.0966 95.0211 50.056L95.2308 48.6667C95.7027 45.6523 97.59 43.8174 100.421 43.8174C101.522 43.8174 102.413 43.9747 102.911 44.1058C103.147 44.1582 103.252 44.263 103.226 44.4989L102.885 46.5959C102.859 46.8056 102.701 46.9891 102.439 46.9367C101.81 46.8843 101.233 46.8056 100.342 46.8056C99.5559 46.8056 99.0054 47.3037 98.7957 48.6667L98.586 50.056C98.3763 51.419 98.7433 51.8909 99.5559 51.8909C100.447 51.8909 101.05 51.8647 101.705 51.786C101.994 51.7598 102.072 51.8909 102.046 52.1268L101.705 54.1976C101.627 54.4597 101.496 54.5383 101.233 54.617ZM112.085 50.3705H106.345V50.3968C106.188 51.3666 106.502 51.9957 107.839 51.9957C108.809 51.9957 110.644 51.8909 111.378 51.8384C111.666 51.8122 111.771 51.8647 111.745 52.153L111.483 53.8044C111.43 54.0927 111.352 54.2238 111.037 54.3286C109.805 54.7218 108.494 54.9053 106.948 54.9053C104.458 54.9053 102.361 53.5947 102.911 50.056L103.095 48.824C103.619 45.5737 105.768 43.7912 108.809 43.7912C112.033 43.7912 113.213 45.8358 112.741 48.824L112.557 49.9249C112.479 50.1871 112.295 50.3705 112.085 50.3705ZM109.386 48.3522C109.569 47.2513 109.228 46.5697 108.311 46.5697C107.42 46.5697 106.843 47.225 106.659 48.3522V48.4046H109.386V48.3522ZM117.878 43.9747L116.227 54.3286C116.201 54.5383 116.017 54.748 115.781 54.748H113.003C112.793 54.748 112.636 54.5383 112.662 54.3548L113.763 47.5134L117.878 43.9747Z" fill="#161F2B"/>
<path d="M118.822 43.9747L118.272 47.5396L124.353 44.0009" fill="#29B2FE"/>
</g>
<defs>
<clipPath id="clip0_509_4">
<rect width="114.706" height="27.6542" fill="white" transform="translate(9.64697 33.647)"/>
</clipPath>
</defs>
</svg>
