<svg width="80" height="80" viewBox="0 0 80 80" fill="none" xmlns="http://www.w3.org/2000/svg">
<path d="M25.9489 80C19.0159 80 12.4961 77.3068 7.58968 72.4003C-2.52989 62.2807 -2.52989 45.8148 7.58968 35.6952L13.4828 41.5883C10.1496 44.9215 8.32299 49.3479 8.32299 54.0544C8.32299 58.7609 10.1629 63.1874 13.4828 66.5206C16.816 69.8538 21.2424 71.6803 25.9489 71.6803C30.6554 71.6803 35.0819 69.8538 38.4151 66.5206L63.9607 40.975L69.8538 46.868L44.3082 72.4003C39.4017 77.3068 32.882 80 25.9489 80Z" fill="#004FFF"/>
<path d="M72.4137 44.2948L66.5206 38.4017C73.387 31.5354 73.387 20.3492 66.5206 13.4828C59.6542 6.61639 48.468 6.61639 41.5883 13.4828L16.0427 39.0284L10.1496 33.1353L35.6952 7.58968C45.8148 -2.52989 62.2808 -2.52989 72.4003 7.58968C82.5332 17.7093 82.5332 34.1752 72.4137 44.2948Z" fill="#004FFF"/>
<path d="M63.9607 69.8538L69.8538 63.9607L72.8003 72.787L63.9607 69.8538Z" fill="#263238"/>
<path d="M27.5465 21.638L21.6543 27.5311L62.7927 68.6637L68.685 62.7706L27.5465 21.638Z" fill="#004FFF"/>
<path d="M24.589 30.4821L15.6694 21.5624C10.7496 16.6426 10.7496 8.64298 15.6694 3.72319C20.5892 -1.19661 28.6021 -1.19661 33.5219 3.72319C35.9085 6.10975 37.2151 9.26962 37.2151 12.6428C37.2151 16.016 35.9085 19.1759 33.5219 21.5624L24.589 30.4821ZM24.589 8.34966C23.4957 8.34966 22.3891 8.76298 21.5624 9.60294C19.8958 11.2695 19.8958 13.9894 21.5624 15.6694L24.589 18.6959L27.6155 15.6694C28.4288 14.8561 28.8688 13.7894 28.8688 12.6428C28.8688 11.4962 28.4288 10.4162 27.6155 9.61627C26.7889 8.76298 25.6823 8.34966 24.589 8.34966Z" fill="#004FFF"/>
<path d="M38.0151 56.7076H23.2957V41.9749H29.2555V50.7479H38.0151V56.7076Z" fill="#263238"/>
<path d="M56.7076 38.0151H50.7479V29.2421H41.9883V23.2824H56.7076V38.0151Z" fill="#263238"/>
</svg>
