<svg width="237" height="70" viewBox="0 0 237 70" fill="none" xmlns="http://www.w3.org/2000/svg">
<path d="M27.071 38.5192C29.2038 39.5003 30.8248 40.8227 31.9765 42.6142C33.1283 44.3632 33.6828 46.4534 33.6828 48.8848C33.6828 51.2736 33.1283 53.3638 31.9765 55.1554C30.8248 56.947 29.2038 58.312 27.071 59.2504C24.9381 60.1889 22.464 60.6581 19.5634 60.6581H12.9942V69.6161H5.48659V37.0688H19.5634C22.4214 37.0688 24.9381 37.5381 27.071 38.5192ZM24.2983 53.0225C25.4927 52.0414 26.0472 50.6764 26.0472 48.8422C26.0472 47.0079 25.45 45.6002 24.2983 44.6191C23.1039 43.638 21.3976 43.1688 19.1368 43.1688H12.9942V54.4729H19.1368C21.3976 54.4729 23.1039 54.0036 24.2983 53.0225Z" fill="#E2E2E2"/>
<path d="M65.4195 35.1066H72.6712V69.5733H65.4195V35.1066Z" fill="#E2E2E2"/>
<path d="M100.995 59.1225H82.0984C82.4396 60.6581 83.2501 61.8952 84.5298 62.791C85.8095 63.6868 87.3878 64.156 89.2647 64.156C90.5871 64.156 91.7388 63.9427 92.72 63.5588C93.7437 63.1749 94.6822 62.5777 95.5353 61.7246L99.3744 65.9049C97.0283 68.5923 93.5731 69.9573 89.0515 69.9573C86.2361 69.9573 83.7194 69.4028 81.5865 68.2937C79.411 67.1846 77.7474 65.649 76.553 63.7294C75.3586 61.7672 74.8041 59.5491 74.8041 57.075C74.8041 54.6435 75.4013 52.4254 76.553 50.4631C77.7047 48.5009 79.3257 46.9653 81.3306 45.8562C83.3781 44.7471 85.6389 44.1926 88.1557 44.1926C90.5871 44.1926 92.8053 44.7045 94.8101 45.7709C96.7724 46.8373 98.3507 48.3303 99.4597 50.2925C100.611 52.2547 101.166 54.5582 101.166 57.1603C101.123 57.2882 101.081 57.9281 100.995 59.1225ZM84.0606 51.103C82.9515 52.0414 82.269 53.3211 82.0131 54.8994H94.3409C94.085 53.3211 93.4025 52.0414 92.2934 51.103C91.1843 50.1645 89.8193 49.6953 88.1983 49.6953C86.5347 49.6953 85.1697 50.1645 84.0606 51.103Z" fill="#E2E2E2"/>
<path d="M135.249 37.0688V69.6161H127.741V56.2645H112.982V69.6161H105.474V37.0688H112.982V49.9086H127.741V37.0688H135.249Z" fill="#E2E2E2"/>
<path d="M158.028 47.0079C160.118 48.8422 161.142 51.6149 161.142 55.3687V69.6161H154.359V66.5021C152.994 68.8056 150.435 70 146.724 70C144.804 70 143.14 69.6587 141.733 69.0189C140.325 68.379 139.259 67.4832 138.491 66.3315C137.766 65.1798 137.382 63.9001 137.382 62.4071C137.382 60.1036 138.278 58.2693 140.026 56.9043C141.775 55.582 144.463 54.8994 148.131 54.8994H153.89C153.89 53.3211 153.421 52.0841 152.44 51.231C151.459 50.3778 150.051 49.9512 148.131 49.9512C146.809 49.9512 145.487 50.1645 144.207 50.5911C142.927 51.0177 141.818 51.5722 140.922 52.2974L138.32 47.2212C139.685 46.2401 141.306 45.5149 143.226 45.003C145.145 44.4912 147.108 44.1926 149.112 44.1926C152.951 44.2352 155.937 45.131 158.028 47.0079ZM151.842 64.2413C152.824 63.6868 153.463 62.8336 153.89 61.7246V59.1651H148.899C145.913 59.1651 144.42 60.1463 144.42 62.1085C144.42 63.0469 144.804 63.7721 145.529 64.3266C146.254 64.8812 147.235 65.1371 148.515 65.1371C149.752 65.0944 150.861 64.7959 151.842 64.2413Z" fill="#E2E2E2"/>
<path d="M206.699 44.5765L197.656 69.5735H190.66L185.03 54.0464L179.228 69.5735H172.275L163.274 44.5765H170.1L175.986 61.5113L182.129 44.5765H188.271L194.201 61.5113L200.301 44.5765H206.699Z" fill="#E2E2E2"/>
<path d="M219.582 59.805L216.084 63.2602V69.6161H208.832V35.1067H216.084V54.6436L226.663 44.6192H235.322L224.914 55.1981L236.26 69.6161H227.473L219.582 59.805Z" fill="#E2E2E2"/>
<path d="M49.0819 64.3693C44.3044 64.3693 40.0813 62.0658 37.394 58.5253C39.7827 64.5825 49.0819 69.9573 49.0819 69.9573C49.0819 69.9573 58.0826 64.6679 60.5567 58.7386C57.9119 62.1511 53.7315 64.3693 49.0819 64.3693Z" fill="#E2E2E2"/>
<path d="M49.0819 36.429C41.7023 36.429 35.7303 42.4009 35.7303 49.7806C35.7303 57.1602 41.7023 63.1322 49.0819 63.1322C56.4616 63.1322 62.4335 57.1602 62.4335 49.7806C62.4335 42.3583 56.4616 36.429 49.0819 36.429ZM49.0819 56.3924C45.4134 56.3924 42.4274 53.4064 42.4274 49.7379C42.4274 46.0694 45.4134 43.0834 49.0819 43.0834C52.7504 43.0834 55.7364 46.0694 55.7364 49.7379C55.7791 53.4064 52.7931 56.3924 49.0819 56.3924Z" fill="#E2E2E2"/>
<path d="M73.3537 24.0584C72.5859 21.4137 71.0929 19.1102 67.6803 19.1102C64.2678 19.1102 58.2105 19.8781 57.4427 18.3424C57.4427 18.3424 57.0588 21.371 62.007 22.9067C62.007 22.9067 58.9783 22.9067 57.0588 21.4137C57.0588 21.4137 52.0253 22.1815 47.8875 23.1626C52.1106 24.6556 55.8217 26.3619 57.9972 28.2388C59.7888 29.8171 61.1965 31.7793 62.2203 34.1255C64.0972 30.6703 68.5335 24.3997 75.0173 26.1913C75.06 26.1486 75.6572 24.8263 73.3537 24.0584ZM73.0125 24.1864C72.9698 24.3144 72.5006 24.2291 71.9887 23.9731C71.4768 23.7598 71.1356 23.4612 71.1782 23.3759C71.2209 23.248 71.6901 23.3333 72.202 23.5892C72.6712 23.8025 73.0551 24.0584 73.0125 24.1864Z" fill="#E2E2E2"/>
<path d="M57.1868 29.2199C50.7029 23.5892 29.5877 19.7074 23.1039 17.4466C16.7054 15.1431 4.54813 10.2376 0.0264997 4.94812C0.0264997 4.94812 -1.12524 11.7732 11.7571 17.4466C24.6395 23.12 44.347 25.7647 44.347 25.7647C44.347 25.7647 16.7054 23.8878 5.31596 17.4466C5.40127 17.6599 8.51522 24.6983 19.734 26.5325C31.1234 28.4094 47.0344 29.5612 47.0344 29.5612C47.0344 29.5612 20.4592 29.1772 16.7054 27.6843C16.7054 28.0682 19.3501 33.3576 31.5073 33.3576C45.1575 32.9737 48.5701 32.9737 48.5701 32.9737C48.5701 32.9737 42.4701 34.1254 40.5506 33.7415C40.5506 33.7415 40.6785 34.1254 41.1478 34.6373C42.1715 35.7037 43.7072 36.0877 45.1148 35.6611C46.3946 35.3198 47.7169 35.1066 49.0819 35.1066C55.6511 35.1066 61.2392 39.4576 63.0734 45.4295C63.0734 40.0121 62.007 33.4003 57.1868 29.2199Z" fill="#E2E2E2"/>
<path d="M19.734 14.8019C25.7913 17.4466 42.854 21.627 42.854 21.627C42.854 21.627 42.854 21.627 28.436 16.3375C14.7858 11.3893 3.7803 -6.10352e-05 3.7803 -6.10352e-05C4.93204 9.08586 13.6767 12.1145 19.734 14.8019Z" fill="#E2E2E2"/>
</svg>
