<svg width="75" height="76" viewBox="0 0 75 76" fill="none" xmlns="http://www.w3.org/2000/svg">
<path d="M50.5222 19.3044C54.7576 22.8137 57.4198 28.2592 57.4198 34.1887C57.4198 48.952 46.5289 46.6528 46.5289 58.2698V64.8044C46.5289 66.4985 45.0768 67.9506 43.3826 67.9506H37.2111H31.0395C29.3454 67.9506 27.8933 66.4985 27.8933 64.8044V58.2698C27.8933 46.6528 17.0023 48.952 17.0023 34.1887C17.0023 28.2592 19.6646 22.9348 23.8999 19.3044" stroke="#263238" stroke-width="2" stroke-miterlimit="10"/>
<path d="M30.9185 67.8296V68.4346C30.9185 71.9439 33.7017 74.7272 37.211 74.7272C40.7203 74.7272 43.5035 71.9439 43.5035 68.4346V67.9506" stroke="#263238" stroke-width="2" stroke-miterlimit="10"/>
<path d="M27.8932 64.1993C27.8932 64.1993 19.0594 60.811 14.34 69.6448C11.0727 68.6767 6.23232 72.065 6.23232 74.7272" stroke="#263238" stroke-width="2" stroke-miterlimit="10"/>
<path d="M37.211 74.7275H0.181824" stroke="#263238" stroke-width="2" stroke-miterlimit="10"/>
<path d="M46.6499 64.1993C46.6499 64.1993 55.4837 60.811 60.2031 69.6448C63.4703 68.6767 68.3108 71.944 68.3108 74.7272" stroke="#263238" stroke-width="2" stroke-miterlimit="10"/>
<path d="M37.332 74.7275H74.3612" stroke="#263238" stroke-width="2" stroke-miterlimit="10"/>
<path d="M46.6499 19.9095C46.6499 21.3617 46.5289 22.6928 46.4079 23.9029C46.0449 27.4122 45.0768 30.0744 44.1087 32.0106C42.7776 34.6728 41.4465 36.0039 41.4465 36.0039H33.7018C33.7018 36.0039 32.3707 34.6728 31.0396 31.8896C30.0715 29.9534 29.1034 27.1702 28.7404 23.7819C28.6194 22.5718 28.4984 21.2407 28.4984 19.7885C28.4984 7.68749 37.5741 2 37.5741 2C37.5741 2 46.6499 7.8085 46.6499 19.9095Z" fill="white" stroke="#004FFF" stroke-width="2" stroke-miterlimit="10"/>
<path d="M43.3825 43.8695L39.9942 42.9015L37.574 48.2259L35.1538 42.9015L31.7655 43.8695C31.7655 38.1821 34.0647 36.1249 34.0647 36.1249H41.2043C41.0833 36.0039 43.3825 38.1821 43.3825 43.8695Z" fill="white" stroke="#004FFF" stroke-width="2" stroke-miterlimit="10"/>
<path d="M31.0395 32.011L23.6579 39.0296C22.5688 28.1387 28.7403 23.9033 28.7403 23.9033C29.2243 27.2916 30.1924 29.9538 31.0395 32.011Z" fill="white" stroke="#004FFF" stroke-width="2" stroke-miterlimit="10"/>
<path d="M51.4903 39.0296L44.1086 32.011C45.0767 30.0749 45.9238 27.2916 46.4078 23.9033C46.4078 23.9033 52.5794 28.1387 51.4903 39.0296Z" fill="white" stroke="#004FFF" stroke-width="2" stroke-miterlimit="10"/>
<path d="M30.7974 10.1077C30.7974 10.1077 32.9756 12.6489 37.453 12.6489C41.8093 12.6489 44.4716 10.1077 44.4716 10.1077" stroke="#004FFF" stroke-width="2" stroke-miterlimit="10"/>
<path d="M10.8307 34.1885H5.86928" stroke="#263238" stroke-width="2" stroke-miterlimit="10"/>
<path d="M14.461 20.8773L10.2256 18.5781" stroke="#263238" stroke-width="2" stroke-miterlimit="10"/>
<path d="M24.1419 11.1968L21.6007 6.96143" stroke="#263238" stroke-width="2" stroke-miterlimit="10"/>
<path d="M63.7123 34.1885H68.6738" stroke="#263238" stroke-width="2" stroke-miterlimit="10"/>
<path d="M60.0821 20.8773L64.3174 18.5781" stroke="#263238" stroke-width="2" stroke-miterlimit="10"/>
<path d="M50.4012 11.1968L52.9424 6.96143" stroke="#263238" stroke-width="2" stroke-miterlimit="10"/>
<path d="M27.8932 55.8496H46.7708" stroke="#263238" stroke-width="2" stroke-miterlimit="10"/>
<path d="M10.4677 46.7739L8.28948 50.7673L4.17513 53.1875L8.28948 55.3657L10.4677 59.48L12.7669 55.3657L17.0022 53.1875L12.7669 50.7673L10.4677 46.7739Z" fill="white" stroke="#004FFF" stroke-width="2" stroke-miterlimit="10"/>
<path d="M63.9543 46.7739L61.8971 50.7673L57.6617 53.1875L61.8971 55.3657L63.9543 59.48L66.3745 55.3657L70.6098 53.1875L66.3745 50.7673L63.9543 46.7739Z" fill="white" stroke="#004FFF" stroke-width="2" stroke-miterlimit="10"/>
<path d="M28.1353 61.7788H38.4211" stroke="#263238" stroke-width="2" stroke-miterlimit="10"/>
</svg>
