<svg width="21" height="12" viewBox="0 0 21 12" fill="none" xmlns="http://www.w3.org/2000/svg">
<mask id="mask0_326_1497" style="mask-type:luminance" maskUnits="userSpaceOnUse" x="0" y="0" width="21" height="12">
<path d="M20.625 0H0V12H20.625V0Z" fill="white"/>
</mask>
<g mask="url(#mask0_326_1497)">
<path d="M20.625 0H0V12H20.625V0Z" fill="white"/>
</g>
<mask id="mask1_326_1497" style="mask-type:luminance" maskUnits="userSpaceOnUse" x="0" y="0" width="21" height="12">
<path d="M20.625 0H0V12H20.625V0Z" fill="white"/>
</mask>
<g mask="url(#mask1_326_1497)">
<path d="M13.8 4.35L20.625 0.525V0H20.175L12.375 4.35H13.8Z" fill="#BD0034"/>
</g>
<mask id="mask2_326_1497" style="mask-type:luminance" maskUnits="userSpaceOnUse" x="0" y="0" width="21" height="12">
<path d="M20.625 0H0V12H20.625V0Z" fill="white"/>
</mask>
<g mask="url(#mask2_326_1497)">
<path d="M13.5 7.875L20.625 11.925V11.1L14.925 7.875H13.5Z" fill="#BD0034"/>
</g>
<mask id="mask3_326_1497" style="mask-type:luminance" maskUnits="userSpaceOnUse" x="0" y="0" width="21" height="12">
<path d="M20.625 0H0V12H20.625V0Z" fill="white"/>
</mask>
<g mask="url(#mask3_326_1497)">
<path d="M0 0.899707L6.075 4.34971H7.5L0 0.074707V0.899707Z" fill="#BD0034"/>
</g>
<mask id="mask4_326_1497" style="mask-type:luminance" maskUnits="userSpaceOnUse" x="0" y="0" width="21" height="12">
<path d="M20.625 0H0V12H20.625V0Z" fill="white"/>
</mask>
<g mask="url(#mask4_326_1497)">
<path d="M7.2 7.875L0 11.925V12H1.275L8.625 7.875H7.2Z" fill="#BD0034"/>
</g>
<mask id="mask5_326_1497" style="mask-type:luminance" maskUnits="userSpaceOnUse" x="0" y="0" width="21" height="12">
<path d="M20.625 0H0V12H20.625V0Z" fill="white"/>
</mask>
<g mask="url(#mask5_326_1497)">
<path d="M19.2 0H12V4.05L19.2 0Z" fill="#1A237B"/>
</g>
<mask id="mask6_326_1497" style="mask-type:luminance" maskUnits="userSpaceOnUse" x="0" y="0" width="21" height="12">
<path d="M20.625 0H0V12H20.625V0Z" fill="white"/>
</mask>
<g mask="url(#mask6_326_1497)">
<path d="M8.77501 0H1.57501L8.77501 4.05V0Z" fill="#1A237B"/>
</g>
<mask id="mask7_326_1497" style="mask-type:luminance" maskUnits="userSpaceOnUse" x="0" y="0" width="21" height="12">
<path d="M20.625 0H0V12H20.625V0Z" fill="white"/>
</mask>
<g mask="url(#mask7_326_1497)">
<path d="M20.625 4.34971V1.57471L15.75 4.34971H20.625Z" fill="#1A237B"/>
</g>
<mask id="mask8_326_1497" style="mask-type:luminance" maskUnits="userSpaceOnUse" x="0" y="0" width="21" height="12">
<path d="M20.625 0H0V12H20.625V0Z" fill="white"/>
</mask>
<g mask="url(#mask8_326_1497)">
<path d="M20.625 10.575V7.875H15.75L20.625 10.575Z" fill="#1A237B"/>
</g>
<mask id="mask9_326_1497" style="mask-type:luminance" maskUnits="userSpaceOnUse" x="0" y="0" width="21" height="12">
<path d="M20.625 0H0V12H20.625V0Z" fill="white"/>
</mask>
<g mask="url(#mask9_326_1497)">
<path d="M2.02502 12H8.77502V8.25L2.02502 12Z" fill="#1A237B"/>
</g>
<mask id="mask10_326_1497" style="mask-type:luminance" maskUnits="userSpaceOnUse" x="0" y="0" width="21" height="12">
<path d="M20.625 0H0V12H20.625V0Z" fill="white"/>
</mask>
<g mask="url(#mask10_326_1497)">
<path d="M12 12H18.825L12 8.25V12Z" fill="#1A237B"/>
</g>
<mask id="mask11_326_1497" style="mask-type:luminance" maskUnits="userSpaceOnUse" x="0" y="0" width="21" height="12">
<path d="M20.625 0H0V12H20.625V0Z" fill="white"/>
</mask>
<g mask="url(#mask11_326_1497)">
<path d="M0 7.875V10.725L5.1 7.875H0Z" fill="#1A237B"/>
</g>
<mask id="mask12_326_1497" style="mask-type:luminance" maskUnits="userSpaceOnUse" x="0" y="0" width="21" height="12">
<path d="M20.625 0H0V12H20.625V0Z" fill="white"/>
</mask>
<g mask="url(#mask12_326_1497)">
<path d="M0 4.35029H5.1L0 1.42529V4.35029Z" fill="#1A237B"/>
</g>
<mask id="mask13_326_1497" style="mask-type:luminance" maskUnits="userSpaceOnUse" x="0" y="0" width="21" height="12">
<path d="M20.625 0H0V12H20.625V0Z" fill="white"/>
</mask>
<g mask="url(#mask13_326_1497)">
<path d="M9.45 0V5.1H0V7.2H9.45V12H11.325V7.2H20.625V5.1H11.325V0H9.45Z" fill="#BD0034"/>
</g>
</svg>
