<svg width="134" height="118" viewBox="0 0 134 118" fill="none" xmlns="http://www.w3.org/2000/svg">
<path d="M121.099 1H13.0662C6.28309 1 0.988973 6.625 0.988973 13.5735V83.2243C0.988973 90.1728 6.44853 95.7978 13.0662 95.7978H52.4412V102.912C52.4412 103.904 52.1103 104.732 51.4485 105.393C50.7868 106.055 49.9596 106.386 48.9669 106.386C44.1691 106.386 40.364 110.357 40.364 115.32C40.364 116.147 41.0257 116.643 41.6875 116.643H92.4779C93.3051 116.643 93.8015 115.982 93.8015 115.32C93.8015 110.357 89.9963 106.386 85.1985 106.386C83.2132 106.386 81.7243 104.732 81.7243 102.746V95.6324H121.099C127.882 95.6324 133.176 90.0074 133.176 83.0588V13.5735C133.176 6.625 127.717 1 121.099 1ZM0.823532 77.2684H133.176H0.823532Z" fill="white"/>
<path d="M0.823532 77.2684H133.176M121.099 1H13.0662C6.28309 1 0.988973 6.625 0.988973 13.5735V83.2243C0.988973 90.1728 6.44853 95.7978 13.0662 95.7978H52.4412V102.912C52.4412 103.904 52.1103 104.732 51.4485 105.393C50.7868 106.055 49.9596 106.386 48.9669 106.386C44.1691 106.386 40.364 110.357 40.364 115.32C40.364 116.147 41.0257 116.643 41.6875 116.643H92.4779C93.3051 116.643 93.8015 115.982 93.8015 115.32C93.8015 110.357 89.9963 106.386 85.1985 106.386C83.2132 106.386 81.7243 104.732 81.7243 102.746V95.6324H121.099C127.882 95.6324 133.176 90.0074 133.176 83.0588V13.5735C133.176 6.625 127.717 1 121.099 1Z" stroke="#403E3E" stroke-width="1.6327" stroke-miterlimit="10"/>
<path d="M52.4412 95.7977H81.7243" stroke="#403E3E" stroke-width="1.6327" stroke-miterlimit="10"/>
<path d="M44.2016 52.6131C42.5704 52.6131 41.0374 51.9253 39.642 50.7853L39.9761 49.1934L39.9957 49.1344C40.2905 47.4442 41.2536 44.5944 44.2016 44.5944C46.4029 44.5944 48.211 46.3829 48.211 48.6038C48.211 50.805 46.4029 52.6131 44.2016 52.6131ZM44.2016 40.5457C40.4281 40.5457 37.5193 42.9828 36.3401 47.0118C34.532 44.2996 33.1562 41.0371 32.3504 38.2855H28.3017V48.82C28.3017 50.9033 26.6115 52.5935 24.5282 52.5935C22.4449 52.5935 20.7547 50.9033 20.7547 48.82V38.2855H16.706V48.82C16.6863 53.1438 20.2043 56.6815 24.5282 56.6815C28.852 56.6815 32.3504 53.1438 32.3504 48.82V47.0511C33.1365 48.702 34.0996 50.353 35.2788 51.827L32.8024 63.5013H36.9494L38.7379 55.0306C40.3102 56.0329 42.1183 56.6815 44.2016 56.6815C48.6434 56.6815 52.2597 53.0455 52.2597 48.6038C52.2597 44.162 48.6434 40.5457 44.2016 40.5457Z" fill="#6FDA44"/>
<path d="M64.6416 40.9975L67.2555 51.5319L70.1446 40.9975H73.5841L69.1619 56.2292H65.7225L63.0103 45.6161L60.2981 56.2095H56.8587L52.4366 40.9778H55.876L58.7258 51.5319L61.3397 40.9975H64.6416ZM81.7797 40.5455C77.3183 40.5455 73.7216 44.1618 73.7216 48.6035C73.7216 53.0649 77.3379 56.6616 81.7797 56.6616C86.2411 56.6616 89.8574 53.0453 89.8574 48.6035C89.8574 44.1618 86.2411 40.5455 81.7797 40.5455ZM81.7797 53.3597C79.1657 53.3597 77.0431 51.2371 77.0431 48.6232C77.0431 46.0092 79.1657 43.8669 81.7797 43.8669C84.3936 43.8669 86.5163 45.9896 86.5163 48.6035C86.5163 51.2371 84.3936 53.3597 81.7797 53.3597ZM99.645 44.4173C97.3455 44.4173 95.4784 46.2844 95.4784 48.5839V56.2292H92.0193V40.9975H95.4784V43.3363C95.4784 43.3363 96.9524 40.9778 99.9791 40.9778H101.04V44.3976H99.645V44.4173ZM111.241 48.0139C113.697 46.6381 115.368 44.0045 115.368 40.9778H111.909C111.909 43.5132 109.845 45.5768 107.31 45.5768H106.838V33.647H103.379V56.2292H106.838V49.0555H107.251C107.585 49.0555 108.037 49.2717 108.234 49.5469L113.147 56.2292H117.294L111.241 48.0139Z" fill="black"/>
</svg>
