<svg width="135" height="135" viewBox="0 0 135 135" fill="none" xmlns="http://www.w3.org/2000/svg">
<path d="M121.276 18H13.2426C6.45956 18 1.16544 23.625 1.16544 30.5735V100.224C1.16544 107.173 6.625 112.798 13.2426 112.798H52.6176V119.912C52.6176 120.904 52.2868 121.732 51.625 122.393C50.9632 123.055 50.136 123.386 49.1434 123.386C44.3456 123.386 40.5404 127.357 40.5404 132.32C40.5404 133.147 41.2022 133.643 41.864 133.643H92.6544C93.4816 133.643 93.9779 132.982 93.9779 132.32C93.9779 127.357 90.1728 123.386 85.375 123.386C83.3897 123.386 81.9007 121.732 81.9007 119.746V112.632H121.276C128.059 112.632 133.353 107.007 133.353 100.059V30.5735C133.353 23.625 127.893 18 121.276 18ZM1 94.2684H133.353Z" fill="white"/>
<path d="M1 94.2684H133.353M121.276 18H13.2426C6.45956 18 1.16544 23.625 1.16544 30.5735V100.224C1.16544 107.173 6.625 112.798 13.2426 112.798H52.6176V119.912C52.6176 120.904 52.2868 121.732 51.625 122.393C50.9632 123.055 50.136 123.386 49.1434 123.386C44.3456 123.386 40.5404 127.357 40.5404 132.32C40.5404 133.147 41.2022 133.643 41.864 133.643H92.6544C93.4816 133.643 93.9779 132.982 93.9779 132.32C93.9779 127.357 90.1728 123.386 85.375 123.386C83.3897 123.386 81.9007 121.732 81.9007 119.746V112.632H121.276C128.059 112.632 133.353 107.007 133.353 100.059V30.5735C133.353 23.625 127.893 18 121.276 18Z" stroke="#403E3E" stroke-width="1.6327" stroke-miterlimit="10"/>
<path d="M52.6176 112.798H81.9007" stroke="#403E3E" stroke-width="1.6327" stroke-miterlimit="10"/>
<path d="M82 18L82 33C82 41.2843 75.2843 48 67 48C58.7157 48 52 41.2843 52 33L52 18L82 18Z" fill="#403E3E"/>
<path d="M63.46 36.9C64.74 35.7933 65.7467 34.8867 66.48 34.18C67.2267 33.46 67.8467 32.7133 68.34 31.94C68.8333 31.1667 69.08 30.3933 69.08 29.62C69.08 28.82 68.8867 28.1933 68.5 27.74C68.1267 27.2867 67.5333 27.06 66.72 27.06C65.9333 27.06 65.32 27.3133 64.88 27.82C64.4533 28.3133 64.2267 28.98 64.2 29.82H62C62.04 28.3 62.4933 27.14 63.36 26.34C64.24 25.5267 65.3533 25.12 66.7 25.12C68.1533 25.12 69.2867 25.52 70.1 26.32C70.9267 27.12 71.34 28.1867 71.34 29.52C71.34 30.48 71.0933 31.4067 70.6 32.3C70.12 33.18 69.54 33.9733 68.86 34.68C68.1933 35.3733 67.34 36.18 66.3 37.1L65.4 37.9H71.74V39.8H62.02V38.14L63.46 36.9Z" fill="white"/>
</svg>
