<svg width="135" height="135" viewBox="0 0 135 135" fill="none" xmlns="http://www.w3.org/2000/svg">
<path d="M121.276 18H13.2426C6.45956 18 1.16544 23.625 1.16544 30.5735V100.224C1.16544 107.173 6.625 112.798 13.2426 112.798H52.6176V119.912C52.6176 120.904 52.2868 121.732 51.625 122.393C50.9632 123.055 50.136 123.386 49.1434 123.386C44.3456 123.386 40.5404 127.357 40.5404 132.32C40.5404 133.147 41.2022 133.643 41.864 133.643H92.6544C93.4816 133.643 93.9779 132.982 93.9779 132.32C93.9779 127.357 90.1728 123.386 85.375 123.386C83.3897 123.386 81.9007 121.732 81.9007 119.746V112.632H121.276C128.059 112.632 133.353 107.007 133.353 100.059V30.5735C133.353 23.625 127.893 18 121.276 18ZM1 94.2684H133.353H1Z" fill="white"/>
<path d="M1 94.2684H133.353M121.276 18H13.2426C6.45956 18 1.16544 23.625 1.16544 30.5735V100.224C1.16544 107.173 6.625 112.798 13.2426 112.798H52.6176V119.912C52.6176 120.904 52.2868 121.732 51.625 122.393C50.9632 123.055 50.136 123.386 49.1434 123.386C44.3456 123.386 40.5404 127.357 40.5404 132.32C40.5404 133.147 41.2022 133.643 41.864 133.643H92.6544C93.4816 133.643 93.9779 132.982 93.9779 132.32C93.9779 127.357 90.1728 123.386 85.375 123.386C83.3897 123.386 81.9007 121.732 81.9007 119.746V112.632H121.276C128.059 112.632 133.353 107.007 133.353 100.059V30.5735C133.353 23.625 127.893 18 121.276 18Z" stroke="#403E3E" stroke-width="1.6327" stroke-miterlimit="10"/>
<path d="M52.6177 112.798H81.9008" stroke="#403E3E" stroke-width="1.6327" stroke-miterlimit="10"/>
<path d="M82 18L82 33C82 41.2843 75.2843 48 67 48C58.7157 48 52 41.2843 52 33L52 18L82 18Z" fill="#403E3E"/>
<path d="M63.16 29.02C63.24 27.78 63.7133 26.8133 64.58 26.12C65.46 25.4267 66.58 25.08 67.94 25.08C68.8733 25.08 69.68 25.2467 70.36 25.58C71.04 25.9133 71.5533 26.3667 71.9 26.94C72.2467 27.5133 72.42 28.16 72.42 28.88C72.42 29.7067 72.2 30.4133 71.76 31C71.32 31.5867 70.7933 31.98 70.18 32.18V32.26C70.9667 32.5 71.58 32.94 72.02 33.58C72.46 34.2067 72.68 35.0133 72.68 36C72.68 36.7867 72.5 37.4867 72.14 38.1C71.78 38.7133 71.2467 39.2 70.54 39.56C69.8333 39.9067 68.9867 40.08 68 40.08C66.56 40.08 65.3733 39.7133 64.44 38.98C63.52 38.2333 63.0267 37.1667 62.96 35.78H65.16C65.2133 36.4867 65.4867 37.0667 65.98 37.52C66.4733 37.96 67.14 38.18 67.98 38.18C68.7933 38.18 69.42 37.96 69.86 37.52C70.3 37.0667 70.52 36.4867 70.52 35.78C70.52 34.8467 70.22 34.1867 69.62 33.8C69.0333 33.4 68.1267 33.2 66.9 33.2H66.38V31.32H66.92C68 31.3067 68.82 31.1267 69.38 30.78C69.9533 30.4333 70.24 29.8867 70.24 29.14C70.24 28.5 70.0333 27.9933 69.62 27.62C69.2067 27.2333 68.62 27.04 67.86 27.04C67.1133 27.04 66.5333 27.2333 66.12 27.62C65.7067 27.9933 65.46 28.46 65.38 29.02H63.16Z" fill="white"/>
</svg>
