<svg width="135" height="135" viewBox="0 0 135 135" fill="none" xmlns="http://www.w3.org/2000/svg">
<path d="M121.276 18H13.2426C6.45956 18 1.16544 23.625 1.16544 30.5735V100.224C1.16544 107.173 6.625 112.798 13.2426 112.798H52.6176V119.912C52.6176 120.904 52.2868 121.732 51.625 122.393C50.9632 123.055 50.136 123.386 49.1434 123.386C44.3456 123.386 40.5404 127.357 40.5404 132.32C40.5404 133.147 41.2022 133.643 41.864 133.643H92.6544C93.4816 133.643 93.9779 132.982 93.9779 132.32C93.9779 127.357 90.1728 123.386 85.375 123.386C83.3897 123.386 81.9007 121.732 81.9007 119.746V112.632H121.276C128.059 112.632 133.353 107.007 133.353 100.059V30.5735C133.353 23.625 127.893 18 121.276 18ZM1 94.2684H133.353Z" fill="white"/>
<path d="M1 94.2684H133.353M121.276 18H13.2426C6.45956 18 1.16544 23.625 1.16544 30.5735V100.224C1.16544 107.173 6.625 112.798 13.2426 112.798H52.6176V119.912C52.6176 120.904 52.2868 121.732 51.625 122.393C50.9632 123.055 50.136 123.386 49.1434 123.386C44.3456 123.386 40.5404 127.357 40.5404 132.32C40.5404 133.147 41.2022 133.643 41.864 133.643H92.6544C93.4816 133.643 93.9779 132.982 93.9779 132.32C93.9779 127.357 90.1728 123.386 85.375 123.386C83.3897 123.386 81.9007 121.732 81.9007 119.746V112.632H121.276C128.059 112.632 133.353 107.007 133.353 100.059V30.5735C133.353 23.625 127.893 18 121.276 18Z" stroke="#403E3E" stroke-width="1.6327" stroke-miterlimit="10"/>
<path d="M52.6176 112.798H81.9007" stroke="#403E3E" stroke-width="1.6327" stroke-miterlimit="10"/>
<path d="M82 18L82 33C82 41.2843 75.2843 48 67 48C58.7157 48 52 41.2843 52 33L52 18L82 18Z" fill="#403E3E"/>
<path d="M64.9 27.5V25.42H69.06V40H66.76V27.5H64.9Z" fill="white"/>
</svg>
